<svg width="16" height="16" viewBox="0 0 16 16" fill="none" xmlns="http://www.w3.org/2000/svg">
<g clip-path="url(#clip0)">
<path d="M8.77251 0.829471L10.5771 4.48604C10.7026 4.74036 10.9452 4.91658 11.2259 4.9573L15.2613 5.5437C15.9682 5.64649 16.2502 6.51491 15.7389 7.0132L12.8189 9.85942C12.616 10.0573 12.5232 10.3427 12.5713 10.622L13.2604 14.6411C13.3813 15.3449 12.6423 15.8816 12.0102 15.5495L8.40104 13.6522C8.15006 13.5203 7.85002 13.5203 7.59904 13.6522L3.98986 15.5495C3.35774 15.882 2.61881 15.3449 2.73963 14.6411L3.42883 10.622C3.47689 10.3427 3.3841 10.0573 3.18118 9.85942L0.2612 7.0132C-0.250106 6.51458 0.0319129 5.64616 0.738797 5.5437L4.77417 4.9573C5.05486 4.91658 5.2975 4.74036 5.42299 4.48604L7.22757 0.829471C7.5433 0.189004 8.45644 0.189004 8.77251 0.829471Z" fill="#FFC422"/>
</g>
<defs>
<clipPath id="clip0">
<rect width="16" height="16" fill="white"/>
</clipPath>
</defs>
</svg>
