<svg width="189" height="56" viewBox="0 0 189 56" fill="none" xmlns="http://www.w3.org/2000/svg">
<path d="M61.8331 0.0654432L60.8648 1.89301L31.0371 23.8153L0.763718 1.43248L0 0V56H17.8676L30.5146 45.963L44.0898 56H62L61.8331 0.0654432ZM17.1282 54.9093H1.09625V4.38227L17.1282 34.4474V54.9093ZM17.8627 33.4972L1.96106 3.67815L30.1151 24.4915L17.8627 33.4972ZM43.7402 54.3821L31.4013 45.26L43.767 35.446L43.7402 54.3821ZM43.8852 33.9565L18.2245 54.3215V34.5867L59.6894 4.11323L43.8852 33.9565ZM44.8352 54.9093L44.8645 34.4462L60.7503 4.45014L60.9001 54.9093H44.8352Z" fill="#201A23"/>
<path d="M60.9001 54.9093H44.8352L44.8644 34.4462L60.7503 4.45013L60.9001 54.9093Z" fill="#F8F7FF"/>
<path d="M43.767 35.446L43.7402 54.3821L31.4014 45.26L43.767 35.446Z" fill="#FFC422"/>
<path d="M59.6892 4.11322L43.885 33.9565L18.2244 54.3215V34.5867L59.6892 4.11322Z" fill="#F8F7FF"/>
<path d="M30.1152 24.4915L17.8628 33.4972L1.96118 3.67815L30.1152 24.4915Z" fill="#FFC422"/>
<path d="M17.1282 34.4474V54.9093H1.09619V4.38228L17.1282 34.4474Z" fill="#F8F7FF"/>
<path d="M70 22H72.7828V31.5538L79.8172 22H82.5707V36H79.7879V26.4359L72.7828 36H70V22Z" fill="white"/>
<path d="M97.6866 22V36H94.9038V30.2399H88.7545V36H85.9717V22H88.7545V27.7395H94.9038V22H97.6866Z" fill="white"/>
<path d="M109.799 22V24.5004H103.874V36H101.091V22H109.799Z" fill="white"/>
<path d="M117.863 32.7695H112.553L111.414 36H108.525L113.827 22H116.522L121.893 36H118.993L117.863 32.7695ZM117.125 30.6497L115.218 25.2116L113.302 30.6497H117.125Z" fill="white"/>
<path d="M73.3924 42.0186L77.042 50.518L77.3091 51.3683L77.5678 50.518L81.2191 42.0186H84.5069V55.7617H81.7752V48.1785L81.8986 45.9623L78.3775 54.3384H76.2408L72.7197 45.9623L72.8447 48.1869V55.76H70.113V42.0169H73.3924V42.0186Z" fill="white"/>
<path d="M87.8386 42.0186H90.5703V51.397L97.4757 42.0186H100.179V55.7616H97.4469V46.3731L90.5703 55.7616H87.8386V42.0186Z" fill="white"/>
<path d="M104.342 56C104.036 56 103.717 55.9645 103.382 55.8952C103.047 55.8242 102.731 55.7262 102.432 55.5994L102.995 53.3173C103.167 53.3866 103.336 53.4424 103.506 53.4847C103.675 53.5269 103.813 53.5472 103.921 53.5472C104.303 53.5472 104.62 53.3985 104.871 53.1043C105.123 52.8085 105.324 52.4146 105.478 51.921C105.63 51.4274 105.744 50.8611 105.816 50.2171C105.889 49.5747 105.938 48.9053 105.965 48.2089C105.99 47.5124 106.004 46.8126 106.004 46.1094C106.004 45.4062 106.004 44.7503 106.004 44.1384V42.0203H115.639V55.7633H112.908V44.4731H108.705C108.705 45.2946 108.7 46.1483 108.692 47.0374C108.682 47.9249 108.641 48.7955 108.568 49.6491C108.496 50.5028 108.374 51.3125 108.205 52.0799C108.036 52.8474 107.789 53.5219 107.464 54.105C107.14 54.6882 106.724 55.1497 106.219 55.4895C105.712 55.8293 105.086 56 104.342 56Z" fill="white"/>
<path d="M130.375 42.0287L124.5 53.412C124.188 54.0357 123.822 54.5496 123.402 54.9536C122.981 55.3576 122.539 55.645 122.075 55.8124C121.61 55.9814 121.135 56.0254 120.646 55.9459C120.159 55.8665 119.689 55.6552 119.238 55.3103L119.306 53.2277C119.962 53.5979 120.519 53.6926 120.983 53.5151C121.444 53.3376 121.835 52.9319 122.152 52.3031L122.477 51.6066L117.549 42.0287H120.606L123.861 48.7515L127.318 42.0287H130.375Z" fill="white"/>
<path d="M132.285 42.0186H135.016V53.3072H139.342V42.0186H142.074V53.3072H146.428V42L149.16 42.0186V55.7617H132.285V42.0186Z" fill="white"/>
<path d="M152.512 42.0186H161.422V44.4731H155.244V47.5581H159.713V49.8401H155.244V53.3072H161.977V55.7616H152.512V42.0186Z" fill="white"/>
<path d="M171.842 48.618C172.275 48.7008 172.672 48.8377 173.03 49.0287C173.391 49.2197 173.7 49.4547 173.962 49.7353C174.222 50.0159 174.427 50.3371 174.574 50.7006C174.721 51.064 174.794 51.4612 174.794 51.894C174.794 53.155 174.33 54.1135 173.404 54.7728C172.478 55.432 171.098 55.7616 169.264 55.7616H164.135V42.0186H169.159C170.796 42.0186 172.043 42.3296 172.904 42.95C173.762 43.5704 174.193 44.4731 174.193 45.658C174.193 46.0215 174.139 46.3596 174.031 46.6757C173.923 46.9901 173.769 47.2775 173.568 47.5344C173.367 47.7913 173.122 48.0128 172.833 48.1987C172.54 48.383 172.211 48.5233 171.842 48.618ZM166.808 47.5192H169.386C169.768 47.5192 170.087 47.4786 170.346 47.3958C170.605 47.313 170.814 47.1997 170.977 47.056C171.139 46.9123 171.256 46.7433 171.325 46.5506C171.394 46.3562 171.43 46.1449 171.43 45.915C171.43 45.6919 171.394 45.4856 171.325 45.2946C171.254 45.1036 171.139 44.9396 170.977 44.8027C170.814 44.6658 170.601 44.5576 170.336 44.4781C170.072 44.3987 169.743 44.3581 169.347 44.3581H166.806V47.5192H166.808ZM169.616 53.4221C170.055 53.4221 170.422 53.3782 170.72 53.2886C171.015 53.199 171.252 53.0773 171.431 52.9201C171.609 52.7645 171.736 52.5803 171.808 52.3707C171.881 52.1611 171.918 51.9312 171.918 51.6827C171.918 51.4274 171.876 51.1925 171.795 50.9761C171.712 50.7597 171.578 50.5721 171.394 50.4132C171.21 50.2543 170.965 50.1309 170.659 50.0413C170.353 49.9517 169.981 49.9077 169.541 49.9077H166.81V53.4221H169.616Z" fill="white"/>
<path d="M184.466 52.5904H179.251L178.134 55.7616H175.297L180.502 42.0186H183.148L188.42 55.7616H185.573L184.466 52.5904ZM183.741 50.5095L181.87 45.1712L179.988 50.5095H183.741Z" fill="white"/>
</svg>
