<svg width="62" height="56" viewBox="0 0 62 56" fill="none" xmlns="http://www.w3.org/2000/svg">
<path d="M61.8331 0.0654432L60.8648 1.89301L31.0371 23.8153L0.763718 1.43248L0 0V56H17.8676L30.5146 45.963L44.0898 56H62L61.8331 0.0654432ZM17.1282 54.9093H1.09625V4.38227L17.1282 34.4474V54.9093ZM17.8627 33.4972L1.96106 3.67815L30.1151 24.4915L17.8627 33.4972ZM43.7402 54.3821L31.4013 45.26L43.767 35.446L43.7402 54.3821ZM43.8852 33.9565L18.2245 54.3215V34.5867L59.6894 4.11323L43.8852 33.9565ZM44.8352 54.9093L44.8645 34.4462L60.7503 4.45014L60.9001 54.9093H44.8352Z" fill="#201A23"/>
<path d="M60.9001 54.9093H44.8352L44.8644 34.4462L60.7503 4.45013L60.9001 54.9093Z" fill="#FFC422"/>
<path d="M43.767 35.446L43.7402 54.3821L31.4014 45.26L43.767 35.446Z" fill="#7A0EE0"/>
<path d="M59.6892 4.11322L43.885 33.9565L18.2244 54.3215V34.5867L59.6892 4.11322Z" fill="#FFC422"/>
<path d="M30.1152 24.4915L17.8628 33.4972L1.96118 3.67815L30.1152 24.4915Z" fill="#7A0EE0"/>
<path d="M17.1282 34.4474V54.9093H1.09619V4.38228L17.1282 34.4474Z" fill="#FFC422"/>
</svg>
